<svg xmlns="http://www.w3.org/2000/svg" width="62.368" height="63.865" viewBox="0 0 62.368 63.865"><g id="Group_4960" data-name="Group 4960" transform="translate(-422.5 -2559.5)"><path id="Path_5517" data-name="Path 5517" d="M528.981,2852.889a7.535,7.535,0,0,1-2.995.6c-3.306,0-5.987-2.01-5.987-4.49" transform="translate(-78.04 -234.119)" fill="none" stroke="#008ecb" stroke-linejoin="round" stroke-width="3"></path><line id="Line_120" data-name="Line 120" y2="4.752" transform="translate(447.762 2561)" fill="none" stroke="#008ecb" stroke-linecap="round" stroke-linejoin="round" stroke-width="3"></line><path id="Path_5518" data-name="Path 5518" d="M464.411,2607.451v-5.987a16.464,16.464,0,1,0-32.927,0v10.477c0,5.987-2.993,11.974-7.483,16.464v2.993h25.444" transform="translate(0 -19.51)" fill="none" stroke="#008ecb" stroke-linecap="round" stroke-linejoin="round" stroke-width="3"></path><path id="Path_5519" data-name="Path 5519" d="M611.329,2735.163l-3.622-3.6-2.282,1.988a12.165,12.165,0,0,0-3.719-1.526l-.224-3.022-5.109.013-.208,3.023a12.161,12.161,0,0,0-3.711,1.545l-2.292-1.977-3.6,3.622,1.988,2.282a12.181,12.181,0,0,0-1.526,3.719l-3.022.224.013,5.108,3.023.208a12.176,12.176,0,0,0,1.545,3.711l-1.977,2.292,3.621,3.6,2.282-1.988a12.19,12.19,0,0,0,3.719,1.527l.223,3.021,5.109-.013.208-3.023a12.162,12.162,0,0,0,3.711-1.545l2.292,1.977,3.6-3.622-1.988-2.282a12.185,12.185,0,0,0,1.526-3.719l3.021-.224-.013-5.108-3.023-.208a12.18,12.18,0,0,0-1.545-3.711Z" transform="translate(-130.066 -136.569)" fill="none" stroke="#008ecb" stroke-linejoin="round" stroke-width="2"></path><circle id="Ellipse_57" data-name="Ellipse 57" cx="4.488" cy="4.488" r="4.488" transform="translate(464.659 2602.715)" fill="none" stroke="#008ecb" stroke-linejoin="round" stroke-width="3"></circle></g></svg>