<svg xmlns="http://www.w3.org/2000/svg" width="51.53" height="37.46" viewBox="0 0 51.53 37.46"><g id="Group_4998" data-name="Group 4998" transform="translate(-1019.855 -1581.841)"><g id="Group_4957" data-name="Group 4957" transform="translate(336.622 1003.054)"><path id="Path_5515" data-name="Path 5515" d="M714.632,580.26l3.17,3.541c-6.785,8.314-22.419,17.39-33.258,16.095-2.564-5.86,2.279-12.155,9.457-13.074-9.992-1.069-17.157,3.954-15.54,10.772,1.207,4.783,4,11.508,11.325,12.546,6.666.944,21.145-4.376,33.492-17.02,2.45,4.1,2.45,4.4,2.45,4.4l4.035-21.732Z" transform="translate(5 6)" fill="#1d1d1b" fill-rule="evenodd"></path></g><path id="Path_5516" data-name="Path 5516" d="M480.7,623.014l3.108,9.567h10.06l-8.138,6.008,3.109,9.613-8.139-5.889-8.139,5.924,3.108-9.655-8.139-6h10.061Z" transform="translate(562.572 958.827)"></path></g></svg>