<svg xmlns="http://www.w3.org/2000/svg" width="39.357" height="43.132" viewBox="0 0 39.357 43.132"><g id="Group_4956" data-name="Group 4956" transform="translate(-1127.648 -996)"><path id="Path_5486" data-name="Path 5486" d="M1155.452,1007.944v-5.5a2.488,2.488,0,0,0,1.36-1.911c0-2.5-6.529-4.529-14.581-4.529s-14.583,2.028-14.583,4.529a2.485,2.485,0,0,0,1.363,1.914v10.685a8.549,8.549,0,0,0,1.293.695,24.513,24.513,0,0,0,6.715,1.626,5.493,5.493,0,0,1,10.422,0,24.515,24.515,0,0,0,6.715-1.626,8.736,8.736,0,0,0,1.3-.695v-5.184m-26.441-7.415c0-1.955,5.918-3.54,13.22-3.54s13.221,1.585,13.221,3.54v0c-.006,1.958-5.922,3.54-13.221,3.54s-13.215-1.582-13.22-3.54Z"></path><path id="Path_5487" data-name="Path 5487" d="M1145.345,2306.011h.817c.009-.032.017-.061.029-.094l1.313-3.581a1.957,1.957,0,0,1,1.83-1.275h.814c.009-.032.018-.061.029-.094l1.316-3.578a1.951,1.951,0,0,1,1.827-1.279h2.131v-4.876a2.021,2.021,0,0,0,0-3.82v.1a19.341,19.341,0,0,1-7.734,2.285c0,.094.006.187.006.28a5.494,5.494,0,0,1-10.988,0c0-.093,0-.187.006-.28a19.339,19.339,0,0,1-7.731-2.285v-.1a2.024,2.024,0,0,0,0,3.826v12.076a2.492,2.492,0,0,0-1.363,1.911c0,2.5,6.529,4.53,14.583,4.53.128,0,.254,0,.382,0l.9-2.466A1.952,1.952,0,0,1,1145.345,2306.011Z" transform="translate(0 -1272.895)"></path><path id="Path_5488" data-name="Path 5488" d="M1320.887,1277.5c.832,0,1.509-.368,1.509-.823a.5.5,0,0,0-.108-.3,2.149,2.149,0,0,0-2.8,0,.5.5,0,0,0-.108.3C1319.378,1277.135,1320.052,1277.5,1320.887,1277.5Z" transform="translate(-188.981 -275.844)"></path><path id="Path_5489" data-name="Path 5489" d="M1974.647,2189.728a1.558,1.558,0,1,0-2.209,0c-.339.525-.677.975-.931,1.462a3.69,3.69,0,0,0-.306.712,2.5,2.5,0,0,0,1.054,3.035,2.569,2.569,0,0,0,1.29.35,2.526,2.526,0,0,0,1.284-.35,2.5,2.5,0,0,0,1.059-3.035,3.683,3.683,0,0,0-.307-.712C1975.324,2190.7,1974.986,2190.253,1974.647,2189.728Zm-2.454,2.9a2.463,2.463,0,0,0,.4.881l.006.006a.41.41,0,0,1-.677.464.427.427,0,0,1-.035-.061,3.145,3.145,0,0,1-.306-1.234,2.646,2.646,0,0,1,.286-1.2c.047-.1.1-.187.149-.277.295-.514.66-.951.893-1.471h.044a12.55,12.55,0,0,1-.566,1.483,4.212,4.212,0,0,0-.137.408A2.144,2.144,0,0,0,1972.193,2192.629Z" transform="translate(-831.312 -1173.993)"></path><path id="Path_5490" data-name="Path 5490" d="M2794.275,2995.9a.488.488,0,0,0-.458.321l-1.165,3.169-.149.409a.489.489,0,0,0,.458.657h6.5a.489.489,0,0,0,.458-.657l-.149-.409-1.165-3.169a.488.488,0,0,0-.458-.321h-3.876Zm.709.712-.306.009a.288.288,0,0,0-.2.1.322.322,0,0,0-.055.105l-.052.149-.105.295c-.257.712-.528,1.418-.823,2.119l-.1.228.061-.228c.2-.735.423-1.462.663-2.186l.1-.3.05-.152a.5.5,0,0,1,.091-.169.494.494,0,0,1,.347-.178c.12,0,.216,0,.324.006a.633.633,0,1,1,0,.2Z" transform="translate(-1640.953 -1971.227)"></path><path id="Path_5491" data-name="Path 5491" d="M2520.658,3342.159l-.274-.744a.493.493,0,0,0-.461-.321h-3.873a.5.5,0,0,0-.461.321l-1.165,3.169-.149.409a.489.489,0,0,0,.461.657h6.5a.489.489,0,0,0,.461-.657l-.149-.409-.35-.951v0Zm-3.117-.4c-.263.023-.522.035-.785.047l-.306.009a.289.289,0,0,0-.2.1.258.258,0,0,0-.055.1l-.053.149-.1.295q-.385,1.068-.823,2.119l-.1.228.061-.228c.2-.735.423-1.462.662-2.186l.1-.3.049-.149a.514.514,0,0,1,.094-.169.481.481,0,0,1,.347-.178c.12,0,.213,0,.321.006.216.008.429.017.645.032l0,0c.2.015.409.035.613.064C2517.859,3341.73,2517.7,3341.745,2517.541,3341.759Z" transform="translate(-1366.714 -2311.468)"></path><path id="Path_5492" data-name="Path 5492" d="M3071.879,3341.415l-.274.744-.2.543-.342.931-.35.951-.149.409a.484.484,0,0,0,.157.549.476.476,0,0,0,.3.108h6.5a.487.487,0,0,0,.458-.657l-.149-.409-1.165-3.169a.488.488,0,0,0-.458-.321h-3.873A.492.492,0,0,0,3071.879,3341.415Zm.846.187c.12,0,.213,0,.321.006a11.936,11.936,0,0,1,1.258.1c-.417.058-.838.082-1.258.1l-.307.009a.282.282,0,0,0-.2.1.306.306,0,0,0-.058.1l-.047.137,0,.012-.108.295c-.158.438-.318.87-.49,1.3v0c-.108.274-.216.542-.33.814-.021.047-.038.094-.061.14v0l-.035.085c.009-.035.018-.073.029-.108v0c.012-.038.021-.079.032-.117.1-.376.21-.753.327-1.126.105-.353.219-.707.336-1.059l.079-.24.021-.061.05-.149a.567.567,0,0,1,.091-.169A.493.493,0,0,1,3072.725,3341.6Z" transform="translate(-1915.029 -2311.468)"></path><path id="Path_5493" data-name="Path 5493" d="M2799.453,3688.825l-.54-1.471-.274-.747a.486.486,0,0,0-.458-.318h-3.905a.486.486,0,0,0-.458.318l-.222.607-.052.14-.54,1.471-.5,1.363a.489.489,0,0,0,.458.656h6.531a.489.489,0,0,0,.458-.656Zm-3.689-1.874c-.155.015-.309.026-.467.035-.1.006-.207.012-.312.014l-.277.006h-.029a.3.3,0,0,0-.2.105.288.288,0,0,0-.055.1l-.05.137,0,.012-.105.295c-.262.721-.537,1.441-.837,2.151l-.044.1c-.012.029-.026.061-.038.09.012-.041.02-.079.032-.12.207-.773.441-1.535.692-2.3l.082-.236.02-.062.05-.149a.543.543,0,0,1,.091-.172l0,0a.493.493,0,0,1,.344-.172h.105c.076,0,.146,0,.219.006.105,0,.21.009.312.015s.222.009.33.018l0,0c.1.009.2.015.306.026h.012c.1.011.2.023.295.038C2796.082,3686.922,2795.924,3686.94,2795.764,3686.952Z" transform="translate(-1640.953 -2651.713)"></path><path id="Path_5494" data-name="Path 5494" d="M3358.21,3690.188l-1.313-3.581a.486.486,0,0,0-.458-.318h-3.875a.486.486,0,0,0-.458.318l-.274.747-.54,1.474v0l-.5,1.357a.489.489,0,0,0,.458.656h6.5A.489.489,0,0,0,3358.21,3690.188Zm-4.938-3.187-.31.006a.3.3,0,0,0-.2.105.3.3,0,0,0-.055.1l-.05.137,0,.012-.1.295c-.274.755-.563,1.511-.881,2.256v0c-.012.029-.026.058-.038.087.009-.038.021-.076.032-.114v0c.207-.773.441-1.538.692-2.3l.079-.236.02-.062.052-.149a.493.493,0,0,1,.091-.172.487.487,0,0,1,.347-.175c.12,0,.213,0,.324.006a12.327,12.327,0,0,1,1.258.1C3354.11,3686.958,3353.69,3686.984,3353.272,3687Z" transform="translate(-2191.236 -2651.713)"></path><path id="Path_5495" data-name="Path 5495" d="M2243.17,3688.828l-.359-.978-.181-.5-.274-.747a.486.486,0,0,0-.458-.318h-3.876a.485.485,0,0,0-.458.318l-.707,1.926-.607,1.655a.489.489,0,0,0,.458.656h6.5a.489.489,0,0,0,.458-.656Zm-3.657-1.876c-.26.023-.52.038-.782.049l-.306.006a.306.306,0,0,0-.254.21l-.053.149-.1.295c-.1.277-.2.554-.309.829-.192.511-.394,1.016-.61,1.518q.2-.757.435-1.506.14-.456.289-.911l.1-.3.05-.149a.542.542,0,0,1,.09-.172.492.492,0,0,1,.347-.175c.123,0,.216,0,.324.006.216.009.432.018.645.035s.408.035.613.064C2239.832,3686.922,2239.671,3686.94,2239.513,3686.952Z" transform="translate(-1092.676 -2651.713)"></path></g></svg>