<svg xmlns="http://www.w3.org/2000/svg" width="80.422" height="44.073" viewBox="0 0 80.422 44.073"><g id="Group_4949" data-name="Group 4949" transform="translate(0 0)"><g id="Group_4948" data-name="Group 4948" transform="translate(0 0)"><path id="Path_5483" data-name="Path 5483" d="M204.078,247.208c.881-5.208,2.53-8.023,8.679-7.62,3.831.251,9.334-1.782,9.334-1.782a20.184,20.184,0,0,1,7.85-1.645l-4.786,2.316s6.185-2.359,6.984-2.659a47.532,47.532,0,0,0,17.676-12.166S264.4,226.7,273.649,239.8a5.965,5.965,0,0,0-2.11.714,5.1,5.1,0,0,1,3.132-.111c4.418,1.261,6.474,5.9,9.758,4.6,0,0-1.595,2.573-4.8.468a11.056,11.056,0,0,0-5.1-1.93,4.251,4.251,0,0,0-2.452.315,3.932,3.932,0,0,1,1.667.079,9.688,9.688,0,0,0-2.242,3.93s-4.444,2.127-4.049,5.828c0,0-6.418.479-4.638-3.506.067-.149.716-1.607.806-1.769l-.573.653a7,7,0,0,0-.166-1.195c-1.408-5.387.618-7.057.618-7.057-2.06,1.408-1.441,6.213-1.441,6.213l-.675.159L256.26,243.2s2.553-3.782.379-7.4c0,0,1.942,3.411-1.055,7.48l5.516,4.708s-.075,1.878.079,4.289c0,0-5.144-.293-7.072,2.778a2.945,2.945,0,0,1-3.306-.665l-4.477.329,3.167-4.689,1.759,1.788,4.757-2.207a2.851,2.851,0,0,1,1.64.748s-1.927-2.55-11.87-4.263c0,0-1.275-4.975.593-7.373,0,0-2.231,1.935-.981,8.1,0,0,6.679.906,9.265,2.611l-3.208,1.868-1.955-1.275-4.106,4.869c-4.115,1.544-9.96,1.753-17.394-2.026,0,0,2.253,1.47,2.843,1.763,0,0,.014,2.035-4.272-.979,0,0,4.984-3.914,3.651-10.136,0,0,.79,8.918-7.319,10.706a10.8,10.8,0,0,0-8.745,9.153l2.384,3.728s-3.77,1.6-6.73-.384l.809-4.325s2.991-6.149,2.271-9.479a5.2,5.2,0,0,0,2.536-3.491c.241-1.068.135-3.815,1.631-6.262a6.637,6.637,0,0,1,3.762-2.886,6.879,6.879,0,0,0-3.875,2.333c-2.407.49-5.716-.414-7.122-.408-3.182.014-5.258,6.4-3.044,5.572,1.793-.672,4.48-1.725,5.422-1.152,3.473,2.115-.434,7.052-.434,7.052a11.294,11.294,0,0,0-.508-3.048,2.364,2.364,0,0,1,.5-2.471C210.746,246.971,203.2,252.416,204.078,247.208Z" transform="translate(-204.007 -223.651)" fill="#232323"></path><path id="Path_5484" data-name="Path 5484" d="M505.815,465.96l-.911,2.976,1.922,2.728a5.475,5.475,0,0,1-5.963-.167,6.48,6.48,0,0,0,.2-3.559,2.467,2.467,0,0,0,.733-1.426S504.6,466.712,505.815,465.96Z" transform="translate(-466.168 -433.503)" fill="#232323"></path><path id="Path_5485" data-name="Path 5485" d="M313.928,385.266s1.139-.625-.126-2.118C313.8,383.148,313.058,384.609,313.928,385.266Z" transform="translate(-248.644 -361.784)" fill="#fff"></path></g></g></svg>