<svg xmlns="http://www.w3.org/2000/svg" width="57.957" height="51.993" viewBox="0 0 57.957 51.993"><g id="Group_4962" data-name="Group 4962" transform="translate(-7932.669 -985.665)"><path id="Path_5522" data-name="Path 5522" d="M8010.971,985.823a.525.525,0,0,0-.52-.139l-8.132,2.179-8.133,2.179a.537.537,0,0,0-.241.9l3.117,3.117-19.012,19.012-4.616-4.616h-.016a4.263,4.263,0,0,0-6.04,0l-12.185,12.184a33.266,33.266,0,0,0,1.684,4.011,23.5,23.5,0,0,0,2.231,3.422l11.3-11.3,4.616,4.616.008-.008a4.262,4.262,0,0,0,6.048.008l11.364-11.364c0,.01,6.248-6.235,6.244-6.243l4.05-4.05,3.117,3.117a.538.538,0,0,0,.9-.241l2.179-8.133,2.179-8.133A.526.526,0,0,0,8010.971,985.823Z" transform="translate(-20.504 0)" fill="#008ecb"></path><path id="Path_5523" data-name="Path 5523" d="M7979.238,1123.077a22.773,22.773,0,1,1-2.761-10.88" transform="translate(0 -109.204)" fill="none" stroke="#008ecb" stroke-miterlimit="10" stroke-width="2"></path></g></svg>