<?xml version="1.0" encoding="UTF-8"?>
<svg xmlns="http://www.w3.org/2000/svg" width="70" height="70" viewBox="0 0 70 70">
  <g id="Kuwait" transform="translate(-130.423 -705.212)">
    <g id="Group_138526" data-name="Group 138526" transform="translate(130.423 705.212)">
      <g id="Group_138844" data-name="Group 138844" transform="translate(0 0)">
        <g id="Group_138524" data-name="Group 138524">
          <g id="Group_138845" data-name="Group 138845">
            <path id="Path_103128" data-name="Path 103128" d="M66.058,2.545a34.988,34.988,0,0,1-33,23.333A34.876,34.876,0,0,1,8,15.351,34.828,34.828,0,0,1,.065,2.545Z" transform="translate(1.978 44.122)" fill="#cd1225"></path>
            <path id="Path_103129" data-name="Path 103129" d="M70.039,13.953A33.509,33.509,0,0,1,68,25.58H2A35.407,35.407,0,0,1,.039,13.953,36.235,36.235,0,0,1,2,2.247H68a34.283,34.283,0,0,1,2.043,11.706" transform="translate(-0.039 21.008)" fill="#fff"></path>
            <path id="Path_103130" data-name="Path 103130" d="M66.058,25.284H.065a35,35,0,0,1,65.993,0" transform="translate(1.978 -1.951)" fill="#00793d"></path>
            <path id="Path_103131" data-name="Path 103131" d="M29.265,14.891V38.224L10.017,51.03A35.01,35.01,0,0,1,2,38.224,35.632,35.632,0,0,1,2,14.891,35.01,35.01,0,0,1,10.017,2.085Z" transform="translate(-0.039 8.442)"></path>
          </g>
        </g>
      </g>
    </g>
  </g>
</svg>
