<?xml version="1.0" encoding="UTF-8"?>
<svg xmlns="http://www.w3.org/2000/svg" width="70" height="70.079" viewBox="0 0 70 70.079">
  <g id="Qatar" transform="translate(-2.892 -144.594)">
    <g id="Group_138842" data-name="Group 138842" transform="translate(2.892 144.594)">
      <g id="Group_138627" data-name="Group 138627">
        <g id="Group_138843" data-name="Group 138843">
          <path id="Path_103164" data-name="Path 103164" d="M70.039,36.989A35.071,35.071,0,0,1,35,72.029a36.51,36.51,0,0,1-10.606-1.65,35.065,35.065,0,0,1,0-66.779A36.51,36.51,0,0,1,35,1.95,35.071,35.071,0,0,1,70.039,36.989" transform="translate(-0.039 -1.95)" fill="#8c1b3c"></path>
          <path id="Path_103165" data-name="Path 103165" d="M32.564,12.027l-14.22,3.85L32.564,19.8l-14.22,3.85,14.22,3.928-14.22,3.928,14.22,3.85-14.22,3.928,14.22,3.85-14.22,3.928,14.22,3.85-14.22,3.928,14.22,3.85-14.22,3.928,14.22,3.85L24.394,68.75a35.065,35.065,0,0,1,0-66.779l8.171,2.278L18.344,8.178Z" transform="translate(-0.039 -0.321)" fill="#fff"></path>
        </g>
      </g>
    </g>
  </g>
</svg>
